<svg width="1000" height="1000" viewBox="0 0 1000 1000" fill="none" xmlns="http://www.w3.org/2000/svg">
<path d="M891.668 447.027C814.625 413.863 747.214 368.364 689.411 310.589C631.636 252.814 586.138 185.375 552.973 108.332C540.241 78.8054 530.011 48.4536 522.166 17.3357C519.609 7.16072 510.486 0 500 0C489.514 0 480.391 7.16072 477.834 17.3357C469.989 48.4536 459.759 78.7768 447.027 108.332C413.863 185.375 368.364 252.814 310.589 310.589C252.814 368.364 185.375 413.863 108.332 447.027C78.8054 459.759 48.4536 469.989 17.3357 477.834C7.16072 480.391 0 489.514 0 500C0 510.486 7.16072 519.609 17.3357 522.166C48.4536 530.011 78.7768 540.241 108.332 552.973C185.375 586.138 252.786 631.636 310.589 689.411C368.393 747.186 413.863 814.625 447.027 891.668C459.759 921.195 469.989 951.546 477.834 982.664C480.391 992.839 489.514 1000 500 1000C510.486 1000 519.609 992.839 522.166 982.664C530.011 951.546 540.241 921.223 552.973 891.668C586.138 814.625 631.636 747.214 689.411 689.411C747.186 631.636 814.625 586.138 891.668 552.973C921.195 540.241 951.546 530.011 982.664 522.166C992.839 519.609 1000 510.486 1000 500C1000 489.514 992.839 480.391 982.664 477.834C951.546 469.989 921.223 459.759 891.668 447.027Z" fill="url(#paint0_linear_3_2)"/>
<defs>
<linearGradient id="paint0_linear_3_2" x1="311.223" y1="646.388" x2="763.589" y2="264.996" gradientUnits="userSpaceOnUse">
<stop stop-color="#346BF1"/>
<stop offset="0.371606" stop-color="#3186FF"/>
<stop offset="0.776981" stop-color="#4FA0FF"/>
</linearGradient>
</defs>
</svg>
