<svg width="685" height="134" viewBox="0 0 685 134" fill="none" xmlns="http://www.w3.org/2000/svg">
<path d="M119.579 60.3881C109.323 55.9733 100.349 49.9165 92.6542 42.2255C84.9632 34.5345 78.9065 25.557 74.4917 15.3011C72.7968 11.3705 71.4349 7.33002 70.3906 3.18761C70.0502 1.83312 68.8357 0.879883 67.4399 0.879883C66.044 0.879883 64.8295 1.83312 64.4891 3.18761C63.4449 7.33002 62.083 11.3666 60.3881 15.3011C55.9733 25.557 49.9165 34.5345 42.2255 42.2255C34.5345 49.9165 25.557 55.9733 15.3011 60.3881C11.3705 62.083 7.33002 63.4449 3.18761 64.4891C1.83312 64.8295 0.879883 66.044 0.879883 67.4399C0.879883 68.8357 1.83312 70.0502 3.18761 70.3906C7.33002 71.4349 11.3666 72.7968 15.3011 74.4917C25.557 78.9065 34.5307 84.9632 42.2255 92.6542C49.9203 100.345 55.9733 109.323 60.3881 119.579C62.083 123.509 63.4449 127.55 64.4891 131.692C64.8295 133.047 66.044 134 67.4399 134C68.8357 134 70.0502 133.047 70.3906 131.692C71.4349 127.55 72.7968 123.513 74.4917 119.579C78.9065 109.323 84.9632 100.349 92.6542 92.6542C100.345 84.9632 109.323 78.9065 119.579 74.4917C123.509 72.7968 127.55 71.4349 131.692 70.3906C133.047 70.0502 134 68.8357 134 67.4399C134 66.044 133.047 64.8295 131.692 64.4891C127.55 63.4449 123.513 62.083 119.579 60.3881Z" fill="url(#paint0_linear_2_15)"/>
<path d="M218.608 110V22.7273H274.517V35.9801H234.418V59.6733H270.682V72.9261H234.418V110H218.608ZM306.488 111.321C302.34 111.321 298.604 110.582 295.281 109.105C291.985 107.599 289.371 105.384 287.44 102.457C285.536 99.5312 284.585 95.9233 284.585 91.6335C284.585 87.9403 285.266 84.8864 286.63 82.4716C287.994 80.0568 289.854 78.125 292.212 76.6761C294.57 75.2273 297.227 74.1335 300.181 73.3949C303.164 72.6278 306.246 72.0739 309.428 71.733C313.263 71.3352 316.374 70.9801 318.761 70.6676C321.147 70.3267 322.88 69.8153 323.96 69.1335C325.067 68.4233 325.621 67.3295 325.621 65.8523V65.5966C325.621 62.3864 324.67 59.9006 322.766 58.1392C320.863 56.3778 318.121 55.4972 314.542 55.4972C310.763 55.4972 307.766 56.321 305.55 57.9688C303.363 59.6165 301.886 61.5625 301.119 63.8068L286.715 61.7614C287.852 57.7841 289.727 54.4602 292.34 51.7898C294.954 49.0909 298.15 47.0739 301.928 45.7386C305.707 44.375 309.883 43.6932 314.457 43.6932C317.61 43.6932 320.749 44.0625 323.874 44.8011C326.999 45.5398 329.854 46.7614 332.44 48.4659C335.025 50.142 337.099 52.429 338.661 55.3267C340.252 58.2244 341.048 61.8466 341.048 66.1932V110H326.218V101.009H325.707C324.769 102.827 323.448 104.531 321.744 106.122C320.067 107.685 317.951 108.949 315.394 109.915C312.866 110.852 309.897 111.321 306.488 111.321ZM310.494 99.9858C313.59 99.9858 316.275 99.375 318.548 98.1534C320.82 96.9034 322.567 95.2557 323.789 93.2102C325.039 91.1648 325.664 88.9347 325.664 86.5199V78.8068C325.181 79.2045 324.357 79.5739 323.192 79.9148C322.056 80.2557 320.778 80.554 319.357 80.8097C317.937 81.0653 316.531 81.2926 315.138 81.4915C313.746 81.6903 312.539 81.8608 311.516 82.0028C309.215 82.3153 307.156 82.8267 305.337 83.5369C303.519 84.2472 302.085 85.2415 301.033 86.5199C299.982 87.7699 299.457 89.3892 299.457 91.3778C299.457 94.2188 300.494 96.3636 302.567 97.8125C304.641 99.2614 307.283 99.9858 310.494 99.9858ZM385.11 111.278C378.576 111.278 372.965 109.844 368.278 106.974C363.619 104.105 360.025 100.142 357.496 95.0852C354.996 90 353.746 84.1477 353.746 77.5284C353.746 70.8807 355.025 65.0142 357.582 59.929C360.138 54.8153 363.746 50.8381 368.406 47.9972C373.093 45.1278 378.633 43.6932 385.025 43.6932C390.337 43.6932 395.039 44.6733 399.13 46.6335C403.249 48.5653 406.531 51.3068 408.974 54.858C411.417 58.3807 412.809 62.5 413.15 67.2159H398.406C397.809 64.0625 396.388 61.4347 394.144 59.3324C391.928 57.2017 388.96 56.1364 385.238 56.1364C382.085 56.1364 379.315 56.9886 376.928 58.6932C374.542 60.3693 372.681 62.7841 371.346 65.9375C370.039 69.0909 369.386 72.8693 369.386 77.2727C369.386 81.733 370.039 85.5682 371.346 88.7784C372.653 91.9602 374.485 94.4176 376.843 96.1506C379.229 97.8551 382.028 98.7074 385.238 98.7074C387.511 98.7074 389.542 98.2812 391.332 97.429C393.15 96.5483 394.67 95.2841 395.891 93.6364C397.113 91.9886 397.951 89.9858 398.406 87.6278H413.15C412.781 92.2585 411.417 96.3636 409.059 99.9432C406.701 103.494 403.491 106.278 399.428 108.295C395.366 110.284 390.593 111.278 385.11 111.278ZM454.794 111.278C448.232 111.278 442.564 109.915 437.791 107.188C433.047 104.432 429.396 100.54 426.839 95.5114C424.283 90.4545 423.004 84.5028 423.004 77.6562C423.004 70.9233 424.283 65.0142 426.839 59.929C429.425 54.8153 433.033 50.8381 437.663 47.9972C442.294 45.1278 447.734 43.6932 453.984 43.6932C458.018 43.6932 461.825 44.3466 465.405 45.6534C469.013 46.9318 472.195 48.9205 474.95 51.6193C477.734 54.3182 479.922 57.7557 481.513 61.9318C483.104 66.0795 483.899 71.0227 483.899 76.7614V81.4915H430.249V71.0938H469.112C469.084 68.1392 468.445 65.5114 467.195 63.2102C465.945 60.8807 464.197 59.0483 461.953 57.7131C459.737 56.3778 457.152 55.7102 454.197 55.7102C451.044 55.7102 448.274 56.4773 445.888 58.0114C443.501 59.517 441.641 61.5057 440.305 63.9773C438.999 66.4205 438.331 69.1051 438.303 72.0312V81.108C438.303 84.9148 438.999 88.1818 440.391 90.9091C441.783 93.608 443.729 95.6818 446.229 97.1307C448.729 98.5511 451.655 99.2614 455.007 99.2614C457.251 99.2614 459.283 98.9489 461.101 98.3239C462.919 97.6705 464.496 96.7188 465.831 95.4688C467.166 94.2188 468.175 92.6705 468.857 90.8239L483.26 92.4432C482.351 96.25 480.618 99.5739 478.061 102.415C475.533 105.227 472.294 107.415 468.345 108.977C464.396 110.511 459.879 111.278 454.794 111.278ZM529.634 44.5455V56.4773H492.006V44.5455H529.634ZM501.296 28.8636H516.722V90.3125C516.722 92.3864 517.035 93.9773 517.66 95.0852C518.313 96.1648 519.165 96.9034 520.217 97.3011C521.268 97.6989 522.433 97.8977 523.711 97.8977C524.677 97.8977 525.558 97.8267 526.353 97.6847C527.177 97.5426 527.802 97.4148 528.228 97.3011L530.827 109.361C530.004 109.645 528.825 109.957 527.29 110.298C525.785 110.639 523.938 110.838 521.751 110.895C517.887 111.009 514.407 110.426 511.31 109.148C508.214 107.841 505.756 105.824 503.938 103.097C502.148 100.369 501.268 96.9602 501.296 92.8693V28.8636ZM584.19 110H567.315L598.04 22.7273H617.557L648.324 110H631.449L608.139 40.625H607.457L584.19 110ZM584.744 75.7812H630.767V88.4801H584.744V75.7812ZM675.629 22.7273V110H659.819V22.7273H675.629Z" fill="white"/>
<defs>
<linearGradient id="paint0_linear_2_15" x1="42.3099" y1="86.927" x2="102.529" y2="36.1562" gradientUnits="userSpaceOnUse">
<stop stop-color="#346BF1"/>
<stop offset="0.371606" stop-color="#3186FF"/>
<stop offset="0.776981" stop-color="#4FA0FF"/>
</linearGradient>
</defs>
</svg>
