<svg width="685" height="134" viewBox="0 0 685 134" fill="none" xmlns="http://www.w3.org/2000/svg">
<path d="M118.699 59.5082C108.443 55.0934 99.4692 49.0367 91.7743 41.3456C84.0833 33.6546 78.0266 24.6771 73.6118 14.4212C71.9169 10.4906 70.555 6.45014 69.5107 2.30773C69.1703 0.953235 67.9559 0 66.56 0C65.1641 0 63.9497 0.953235 63.6093 2.30773C62.565 6.45014 61.2031 10.4868 59.5082 14.4212C55.0934 24.6771 49.0367 33.6546 41.3456 41.3456C33.6546 49.0367 24.6771 55.0934 14.4212 59.5082C10.4906 61.2031 6.45014 62.565 2.30773 63.6093C0.953235 63.9497 0 65.1641 0 66.56C0 67.9559 0.953235 69.1703 2.30773 69.5107C6.45014 70.555 10.4868 71.9169 14.4212 73.6118C24.6771 78.0266 33.6508 84.0833 41.3456 91.7743C49.0405 99.4654 55.0934 108.443 59.5082 118.699C61.2031 122.629 62.565 126.67 63.6093 130.812C63.9497 132.167 65.1641 133.12 66.56 133.12C67.9559 133.12 69.1703 132.167 69.5107 130.812C70.555 126.67 71.9169 122.633 73.6118 118.699C78.0266 108.443 84.0833 99.4692 91.7743 91.7743C99.4654 84.0833 108.443 78.0266 118.699 73.6118C122.629 71.9169 126.67 70.555 130.812 69.5107C132.167 69.1703 133.12 67.9559 133.12 66.56C133.12 65.1641 132.167 63.9497 130.812 63.6093C126.67 62.565 122.633 61.2031 118.699 59.5082Z" fill="url(#paint0_linear_2_16)"/>
<path d="M217.728 109.12V21.8474H273.637V35.1002H233.538V58.7934H269.802V72.0463H233.538V109.12H217.728ZM305.608 110.441C301.46 110.441 297.725 109.703 294.401 108.225C291.105 106.72 288.492 104.504 286.56 101.578C284.656 98.6514 283.705 95.0434 283.705 90.7536C283.705 87.0605 284.386 84.0065 285.75 81.5917C287.114 79.1769 288.975 77.2451 291.332 75.7963C293.69 74.3474 296.347 73.2536 299.301 72.515C302.284 71.748 305.367 71.194 308.548 70.8531C312.384 70.4553 315.494 70.1002 317.881 69.7877C320.267 69.4468 322 68.9355 323.08 68.2536C324.188 67.5434 324.742 66.4497 324.742 64.9724V64.7167C324.742 61.5065 323.79 59.0207 321.886 57.2593C319.983 55.498 317.242 54.6173 313.662 54.6173C309.884 54.6173 306.886 55.4411 304.671 57.0889C302.483 58.7366 301.006 60.6826 300.239 62.9269L285.835 60.8815C286.972 56.9042 288.847 53.5803 291.46 50.9099C294.074 48.211 297.27 46.194 301.048 44.8588C304.827 43.4951 309.003 42.8133 313.577 42.8133C316.73 42.8133 319.869 43.1826 322.994 43.9213C326.119 44.6599 328.975 45.8815 331.56 47.586C334.145 49.2622 336.219 51.5491 337.781 54.4468C339.372 57.3445 340.168 60.9667 340.168 65.3133V109.12H325.338V100.129H324.827C323.889 101.947 322.568 103.651 320.864 105.242C319.188 106.805 317.071 108.069 314.514 109.035C311.986 109.972 309.017 110.441 305.608 110.441ZM309.614 99.1059C312.71 99.1059 315.395 98.4951 317.668 97.2735C319.94 96.0235 321.688 94.3758 322.909 92.3303C324.159 90.2849 324.784 88.0548 324.784 85.64V77.9269C324.301 78.3247 323.477 78.694 322.313 79.0349C321.176 79.3758 319.898 79.6741 318.477 79.9298C317.057 80.1855 315.651 80.4127 314.259 80.6116C312.867 80.8105 311.659 80.9809 310.636 81.123C308.335 81.4355 306.276 81.9468 304.457 82.657C302.639 83.3673 301.205 84.3616 300.153 85.64C299.102 86.89 298.577 88.5093 298.577 90.498C298.577 93.3389 299.614 95.4838 301.688 96.9326C303.761 98.3815 306.403 99.1059 309.614 99.1059ZM384.23 110.399C377.696 110.399 372.085 108.964 367.398 106.095C362.739 103.225 359.145 99.2622 356.617 94.2053C354.117 89.1201 352.867 83.2678 352.867 76.6485C352.867 70.0008 354.145 64.1343 356.702 59.0491C359.259 53.9355 362.867 49.9582 367.526 47.1173C372.213 44.248 377.753 42.8133 384.145 42.8133C389.457 42.8133 394.159 43.7934 398.25 45.7536C402.369 47.6855 405.651 50.4269 408.094 53.9781C410.537 57.5008 411.929 61.6201 412.27 66.336H397.526C396.929 63.1826 395.509 60.5548 393.264 58.4525C391.048 56.3218 388.08 55.2565 384.358 55.2565C381.205 55.2565 378.435 56.1088 376.048 57.8133C373.662 59.4894 371.801 61.9042 370.466 65.0576C369.159 68.211 368.506 71.9894 368.506 76.3928C368.506 80.8531 369.159 84.6883 370.466 87.8985C371.773 91.0803 373.605 93.5377 375.963 95.2707C378.35 96.9752 381.148 97.8275 384.358 97.8275C386.631 97.8275 388.662 97.4014 390.452 96.5491C392.27 95.6684 393.79 94.4042 395.011 92.7565C396.233 91.1088 397.071 89.1059 397.526 86.748H412.27C411.901 91.3786 410.537 95.4838 408.179 99.0633C405.821 102.614 402.611 105.399 398.548 107.416C394.486 109.404 389.713 110.399 384.23 110.399ZM453.914 110.399C447.352 110.399 441.684 109.035 436.911 106.308C432.167 103.552 428.516 99.6599 425.96 94.6315C423.403 89.5747 422.124 83.623 422.124 76.7764C422.124 70.0434 423.403 64.1343 425.96 59.0491C428.545 53.9355 432.153 49.9582 436.783 47.1173C441.414 44.248 446.854 42.8133 453.104 42.8133C457.139 42.8133 460.945 43.4667 464.525 44.7735C468.133 46.0519 471.315 48.0406 474.07 50.7394C476.854 53.4383 479.042 56.8758 480.633 61.0519C482.224 65.1997 483.019 70.1428 483.019 75.8815V80.6116H429.369V70.2139H468.232C468.204 67.2593 467.565 64.6315 466.315 62.3303C465.065 60.0008 463.318 58.1684 461.073 56.8332C458.857 55.498 456.272 54.8303 453.318 54.8303C450.164 54.8303 447.394 55.5974 445.008 57.1315C442.622 58.6372 440.761 60.6258 439.426 63.0974C438.119 65.5406 437.451 68.2252 437.423 71.1514V80.2281C437.423 84.0349 438.119 87.3019 439.511 90.0292C440.903 92.7281 442.849 94.8019 445.349 96.2508C447.849 97.6713 450.775 98.3815 454.127 98.3815C456.372 98.3815 458.403 98.069 460.221 97.444C462.039 96.7906 463.616 95.8389 464.951 94.5889C466.286 93.3389 467.295 91.7906 467.977 89.944L482.38 91.5633C481.471 95.3701 479.738 98.694 477.181 101.535C474.653 104.347 471.414 106.535 467.465 108.097C463.516 109.631 458.999 110.399 453.914 110.399ZM528.754 43.6656V55.5974H491.127V43.6656H528.754ZM500.416 27.9838H515.842V89.4326C515.842 91.5065 516.155 93.0974 516.78 94.2053C517.433 95.2849 518.286 96.0235 519.337 96.4213C520.388 96.819 521.553 97.0178 522.831 97.0178C523.797 97.0178 524.678 96.9468 525.473 96.8048C526.297 96.6627 526.922 96.5349 527.348 96.4213L529.948 108.481C529.124 108.765 527.945 109.078 526.411 109.418C524.905 109.759 523.058 109.958 520.871 110.015C517.007 110.129 513.527 109.546 510.43 108.268C507.334 106.961 504.877 104.944 503.058 102.217C501.269 99.4894 500.388 96.0803 500.416 91.9894V27.9838ZM583.31 109.12H566.435L597.16 21.8474H616.677L647.444 109.12H630.569L607.259 39.7451H606.578L583.31 109.12ZM583.864 74.9014H629.887V87.6002H583.864V74.9014ZM674.749 21.8474V109.12H658.939V21.8474H674.749Z" fill="#1E1E1E"/>
<defs>
<linearGradient id="paint0_linear_2_16" x1="41.43" y1="86.0471" x2="101.649" y2="35.2763" gradientUnits="userSpaceOnUse">
<stop stop-color="#346BF1"/>
<stop offset="0.371606" stop-color="#3186FF"/>
<stop offset="0.776981" stop-color="#4FA0FF"/>
</linearGradient>
</defs>
</svg>
